<?xml version="1.0" standalone="no"?>
<!DOCTYPE svg PUBLIC "-//W3C//DTD SVG 20010904//EN"
 "http://www.w3.org/TR/2001/REC-SVG-20010904/DTD/svg10.dtd">
<svg version="1.0" xmlns="http://www.w3.org/2000/svg"
 width="1024.000000pt" height="1024.000000pt" viewBox="0 0 1024.000000 1024.000000"
 preserveAspectRatio="xMidYMid meet">
<metadata>
Created by potrace 1.11, written by Peter Selinger 2001-2013
</metadata>
<g transform="translate(0.000000,1024.000000) scale(0.100000,-0.100000)"
fill="#000000" stroke="none">
<path d="M4858 10236 c-1 -2 -50 -6 -108 -10 -58 -3 -116 -8 -130 -11 -14 -2
-50 -6 -80 -9 -70 -6 -123 -14 -235 -32 -195 -32 -207 -35 -510 -108 -39 -10
-109 -30 -160 -46 -33 -11 -82 -27 -110 -35 -71 -23 -214 -74 -252 -91 -17 -8
-34 -14 -38 -14 -4 0 -21 -6 -38 -14 -18 -8 -54 -24 -82 -36 -121 -51 -160
-69 -321 -151 -181 -91 -371 -202 -519 -303 -124 -84 -279 -198 -283 -208 -2
-4 -10 -8 -17 -8 -8 0 -18 -6 -22 -13 -4 -6 -24 -24 -43 -39 -19 -14 -44 -34
-55 -45 -11 -10 -33 -29 -50 -42 -82 -63 -309 -282 -455 -437 -84 -89 -223
-257 -316 -381 -41 -54 -78 -103 -83 -109 -5 -6 -52 -76 -104 -155 -220 -334
-397 -685 -532 -1054 -20 -55 -39 -107 -42 -115 -3 -8 -7 -19 -9 -25 -1 -5
-21 -68 -43 -140 -40 -132 -95 -341 -106 -405 -3 -19 -10 -51 -15 -70 -5 -19
-11 -53 -15 -75 -3 -23 -8 -52 -10 -65 -5 -22 -16 -95 -30 -195 -3 -16 -7 -57
-10 -90 -3 -33 -8 -69 -10 -80 -26 -127 -27 -797 0 -1011 3 -22 7 -57 9 -79
14 -119 21 -166 52 -335 54 -296 86 -421 179 -705 31 -94 114 -316 135 -360 5
-11 19 -42 30 -70 30 -68 184 -379 216 -435 64 -112 144 -243 208 -340 65 -99
268 -374 318 -431 13 -15 43 -51 68 -80 145 -172 427 -449 604 -594 27 -22 54
-45 60 -50 6 -6 61 -47 121 -93 61 -45 115 -85 120 -90 68 -51 337 -223 450
-287 85 -48 346 -179 425 -214 41 -18 89 -39 105 -46 82 -37 372 -145 435
-160 3 -1 12 -4 20 -8 47 -19 355 -102 420 -113 14 -3 32 -7 40 -9 8 -2 31 -7
50 -10 19 -3 42 -8 50 -10 8 -2 29 -6 45 -9 17 -3 71 -12 120 -20 88 -15 118
-19 220 -31 206 -24 316 -29 595 -30 238 0 436 8 497 19 10 2 50 7 88 10 39 4
80 8 90 10 11 2 43 7 70 10 28 4 73 11 100 16 28 5 64 12 80 15 473 77 1115
307 1559 559 54 31 100 56 103 56 5 0 92 56 263 168 334 220 659 501 940 812
41 45 82 90 90 99 8 9 33 39 55 66 22 28 42 52 45 55 24 22 270 355 270 365 0
3 5 11 10 18 6 7 34 48 62 92 199 310 394 716 519 1080 60 177 143 466 154
540 2 11 11 54 20 95 9 41 19 89 21 105 3 17 9 55 14 85 20 114 28 172 36 255
3 33 7 71 10 85 25 158 25 824 -1 1005 -2 17 -6 55 -10 85 -6 58 -41 298 -50
340 -80 396 -159 666 -290 991 -67 166 -192 430 -260 549 -21 36 -46 81 -57
100 -90 159 -285 449 -379 564 -5 6 -42 52 -81 101 -40 50 -82 99 -93 111 -11
12 -40 45 -65 74 -112 131 -370 379 -540 519 -14 11 -32 27 -40 34 -26 24
-222 171 -290 217 -36 25 -69 49 -75 53 -83 66 -402 250 -620 357 -499 243
-1014 400 -1566 475 -25 3 -57 7 -70 10 -13 2 -60 7 -104 10 -44 4 -98 9 -120
12 -47 5 -642 13 -647 9z"/>
</g>
</svg>
